<svg width="23" height="23" viewBox="0 0 23 23" fill="none" xmlns="http://www.w3.org/2000/svg">
<path fill-rule="evenodd" clip-rule="evenodd" d="M1.9165 6.22913C1.9165 3.8474 3.84728 1.91663 6.229 1.91663H11.4998C13.6169 1.91663 15.3332 3.63287 15.3332 5.74996V6.70829C15.3332 7.23756 14.9041 7.66663 14.3748 7.66663C13.8456 7.66663 13.4165 7.23756 13.4165 6.70829V5.74996C13.4165 4.69141 12.5584 3.83329 11.4998 3.83329H6.229C4.90582 3.83329 3.83317 4.90595 3.83317 6.22913V16.7708C3.83317 18.094 4.90582 19.1666 6.229 19.1666H11.4998C12.5584 19.1666 13.4165 18.3085 13.4165 17.25V16.2916C13.4165 15.7623 13.8456 15.3333 14.3748 15.3333C14.9041 15.3333 15.3332 15.7623 15.3332 16.2916V17.25C15.3332 19.367 13.6169 21.0833 11.4998 21.0833H6.229C3.84728 21.0833 1.9165 19.1525 1.9165 16.7708V6.22913ZM17.5305 7.94731C17.9048 7.57306 18.5116 7.57306 18.8858 7.94731L21.7608 10.8223C22.135 11.1966 22.135 11.8034 21.7608 12.1776L18.8858 15.0526C18.5116 15.4268 17.9048 15.4268 17.5305 15.0526C17.1563 14.6784 17.1563 14.0716 17.5305 13.6973L18.7696 12.4583H10.5415C10.0122 12.4583 9.58317 12.0292 9.58317 11.5C9.58317 10.9707 10.0122 10.5416 10.5415 10.5416H18.7696L17.5305 9.30261C17.1563 8.92835 17.1563 8.32157 17.5305 7.94731Z" fill="white"/>
</svg>
